<?xml version="1.0" encoding="UTF-8"?>
<!DOCTYPE svg PUBLIC "-//W3C//DTD SVG 1.1//EN" "http://www.w3.org/Graphics/SVG/1.1/DTD/svg11.dtd">
<!-- Creator: CorelDRAW -->
<svg xmlns="http://www.w3.org/2000/svg" xml:space="preserve" width="43.6253mm" height="47.6538mm" version="1.1" style="shape-rendering:geometricPrecision; text-rendering:geometricPrecision; image-rendering:optimizeQuality; fill-rule:evenodd; clip-rule:evenodd"
viewBox="0 0 225.93 246.8"
 xmlns:xlink="http://www.w3.org/1999/xlink"
 xmlns:xodm="http://www.corel.com/coreldraw/odm/2003">
 <defs>
  <style type="text/css">
   <![CDATA[
    .fil0 {fill:#008287;fill-rule:nonzero}
   ]]>
  </style>
 </defs>
 <g id="Capa_x0020_1">
  <metadata id="CorelCorpID_0Corel-Layer"/>
  <g id="_2795799851920">
   <path class="fil0" d="M83.84 1.99c9.75,-1.34 19.29,-1.99 28.63,-1.99 9.37,0.01 18.5,0.68 27.38,1.99 13.26,1.95 24.92,7.66 33.44,16.35 8.22,8.38 13.51,19.5 14.5,32.65 0.38,5.05 0.4,10.1 0,15.16 -1.06,13.35 -6.47,24.9 -14.87,33.47 -2,2.04 -4.18,3.92 -6.5,5.6 6.94,0.75 14.07,4.78 18.09,12.2l2.26 6.67c2.53,16.32 -11.37,26.34 -26.34,25.82 -13.86,-0.58 -22.91,-7.51 -26.77,-18.29 -0.68,2.31 -1.57,4.51 -2.69,6.53 -3.35,5.99 -8.74,10.28 -17.07,10.71 -0.71,0.04 -1.46,0.04 -2.25,0.02 -4.79,-0.15 -8.54,-1.53 -11.5,-3.74 -2.93,-2.2 -5,-5.17 -6.47,-8.56 -0.44,-1.01 -0.8,-2.05 -1.12,-3.11 -12.15,27.73 -60.26,20.58 -53.79,-9.19 2.19,-10.06 10.7,-16.34 19.38,-18.07 -2.97,-1.98 -5.71,-4.24 -8.18,-6.76 -8.42,-8.58 -13.71,-20.13 -14.1,-33.43 -0.15,-4.96 -0.14,-9.93 0,-14.89 0.36,-13.12 5.53,-24.25 13.77,-32.64 8.69,-8.86 20.79,-14.65 34.2,-16.49zm65.32 111.44c-3.03,0.83 -6.19,1.41 -9.44,1.73 -0.76,0.08 -1.51,0.15 -2.27,0.21 -0.68,13.29 2.07,24.5 17.05,28.41 5.85,1.53 12.32,1.3 17.84,-1.28 18.8,-8.78 7.29,-35.66 -11.45,-32.52 -4.08,0.68 -7.17,3.39 -8.33,7.36 -1.89,6.72 0.81,16 9.4,14.97l0.53 3.79 -0.52 -3.79c3.32,-0.64 5.67,-3.58 6.1,-6.86l3.58 0.22 -3.58 -0.25c0.13,-3.23 -2.04,-6.59 -5.29,-7.23 -5.79,-1.13 3.81,-7.22 8.07,2.58l0.7 2.16c3.2,14.83 -21.1,19.4 -23.76,1.37 -0.64,-4.37 -0.07,-8 1.36,-10.89zm-14.97 -3.26c0.24,-0.05 0.48,-0.07 0.72,-0.06 1.42,-0.12 2.85,-0.25 4.28,-0.39 11.89,-1.18 22.24,-6.19 29.84,-13.93 7.52,-7.66 12.35,-18.04 13.31,-30.07 0.38,-4.77 0.36,-9.55 0,-14.32 -0.89,-11.81 -5.61,-21.76 -12.94,-29.23 -7.68,-7.83 -18.26,-12.99 -30.34,-14.77 -8.69,-1.28 -17.55,-1.94 -26.58,-1.94 -9.07,-0.01 -18.37,0.63 -27.9,1.94 -12.22,1.68 -23.19,6.91 -31.04,14.91 -7.3,7.44 -11.89,17.31 -12.21,28.96 -0.13,4.86 -0.14,9.73 0,14.59 0.35,11.84 5.05,22.12 12.54,29.75 7.77,7.93 18.54,13.02 30.58,14.11 2.63,0.24 5.26,0.44 7.91,0.62 0.4,-0.09 0.81,-0.08 1.19,0.08 5.95,0.37 11.94,0.58 17.97,0.6 7.48,0.02 15.04,-0.24 22.68,-0.85zm28.49 -51.9c-8.78,3.54 -14.43,8.52 -18.07,14.64 -3.56,5.99 -5.27,13.14 -6.12,21.14 5.65,-1.63 10.6,-4.54 14.52,-8.46 5.35,-5.35 8.79,-12.59 9.48,-20.98 0.14,-1.75 0.21,-3.44 0.21,-5.05 -0,-0.42 -0.01,-0.85 -0.02,-1.28zm-27.13 25.56c1.12,-4.78 2.74,-9.22 5.14,-13.24 3.44,-5.78 8.4,-10.65 15.62,-14.4 -8.1,2.41 -13.39,6.6 -16.59,12.14 -2.51,4.35 -3.79,9.58 -4.16,15.49zm-4.32 11.55c-1.02,-11.43 0.02,-21.47 4.53,-29.31 4.66,-8.08 12.88,-13.67 26.13,-15.81 -1.29,-6.4 -4.33,-11.86 -8.62,-16.16 -5.49,-5.49 -13.05,-9.1 -21.69,-10.35l-0.5 -0.07c0.6,1.06 0.97,2.24 1.06,3.51 0.37,5.28 -1.96,8.51 -5.93,10.43 -3.46,1.68 -8.18,2.2 -13.34,2.24 -3.97,0.03 -8.57,-0.12 -12.43,-1.25 -4.38,-1.28 -7.8,-3.77 -8.59,-8.48 -0.1,-0.61 -0.16,-1.22 -0.18,-1.85 -0.05,-1.64 0.22,-3.19 0.87,-4.59l-0.46 0.06c-8.74,1.18 -16.59,4.85 -22.2,10.45 -4.76,4.76 -7.89,10.93 -8.55,18.16 13.37,2.03 22.12,7.07 27.31,14.63 5.07,7.38 6.6,17.03 5.63,28.52 5.8,0.46 11.58,0.72 17.35,0.74 6.45,0.02 12.99,-0.25 19.62,-0.88zm-24.64 21.05c0.27,7.65 1.14,16.86 6.1,17.11 0.15,0.01 0.28,0.01 0.4,0.01 1.99,-0.07 3.41,-1.7 4.41,-4.09 1.23,-2.93 1.81,-6.86 2.01,-10.75 0.04,-0.77 0.06,-1.54 0.07,-2.3 -2.7,0.07 -5.39,0.09 -8.08,0.09 -1.64,-0.01 -3.28,-0.02 -4.91,-0.06zm17.55 -0.18c-0.01,0.88 -0.04,1.77 -0.08,2.67 -0.22,4.37 -0.9,8.85 -2.35,12.31 -1.68,4 -4.36,6.74 -8.48,6.87 -0.26,0.01 -0.51,0.01 -0.76,-0.01 -8.94,-0.45 -10.11,-12.36 -10.44,-21.79 -1.89,-0.07 -3.78,-0.15 -5.66,-0.25 -0.07,6.03 -0,13.02 2.31,18.36 1.11,2.56 2.63,4.78 4.73,6.36 2.08,1.56 4.81,2.53 8.39,2.65 0.6,0.02 1.2,0.01 1.8,-0.02 6.13,-0.32 10.1,-3.49 12.58,-7.93 2.68,-4.79 3.75,-11.04 3.94,-16.96 0.03,-0.86 0.04,-1.72 0.03,-2.57 -2.01,0.13 -4.01,0.23 -6.01,0.31zm-34.15 -0.6c-2.01,-0.15 -4.02,-0.31 -6.02,-0.49 -2.02,-0.18 -4,-0.47 -5.95,-0.85 1.19,2.66 1.68,5.96 1.22,9.94 -2.13,18.39 -27.46,15.6 -25.04,0.11 0.34,-2.19 1.47,-4.28 3.39,-5.47 3.91,-2.26 0.93,4.89 0.78,6.56l-4.26 -0.36 4.26 0.38c0.13,3.76 2.22,6.36 5.93,7.33 7.16,1.86 14.65,-10.32 7.72,-18.53 -1.02,-1.21 -2.22,-2.1 -3.53,-2.7 -0.33,-0.13 -0.67,-0.26 -1,-0.4 -8.95,-3.06 -22.24,5.76 -23.53,15.64 -2.85,23.95 38.96,25.5 44.99,0.06 0.87,-3.65 1.08,-7.46 1.02,-11.22zm-12.37 -53.01c2.46,2.31 4.54,4.84 6.28,7.56 2.63,4.1 4.5,8.62 5.79,13.46 -0.59,-5.46 -2.13,-10.2 -4.82,-14.11 -1.84,-2.68 -4.23,-4.99 -7.26,-6.92zm9.45 31.92c-0.92,-8.2 -2.99,-15.65 -7,-21.9 -4.03,-6.28 -10.06,-11.41 -18.92,-14.99 -0.01,0.63 -0.01,1.25 -0.01,1.87 0,1.71 0.02,3.44 0.08,5.19 0.25,8.24 3.59,15.39 8.91,20.72 4.47,4.47 10.33,7.65 16.94,9.11zm12.86 -71.67c-1.13,0.41 -1.97,0.97 -2.56,1.63 -0.84,0.95 -1.19,2.21 -1.15,3.63 0.01,0.38 0.05,0.79 0.13,1.23l0 0.01c0.43,2.58 2.58,4.03 5.38,4.85 3.32,0.97 7.49,1.09 11.13,1.07 4.54,-0.03 8.61,-0.45 11.38,-1.79 2.25,-1.09 3.58,-2.96 3.36,-6.02 -0.09,-1.32 -0.92,-2.49 -2.25,-3.4 -0.81,-0.56 -1.8,-1.01 -2.91,-1.34 -3.34,-0.25 -6.71,-0.38 -10.11,-0.38 -4.06,-0 -8.19,0.17 -12.39,0.52zm-8.57 -4.56c7.13,-0.96 14.12,-1.43 20.96,-1.43 6.87,0.01 13.55,0.49 20.05,1.43 9.83,1.42 18.47,5.57 24.79,11.89 6.11,6.11 10.05,14.23 10.79,23.85 0.14,1.75 0.21,3.58 0.21,5.47 0,1.89 -0.07,3.72 -0.21,5.48 -0.79,9.75 -4.81,18.18 -11.06,24.43 -6.29,6.29 -14.85,10.36 -24.65,11.31 -6.96,0.68 -13.83,0.97 -20.62,0.95 -6.87,-0.02 -13.57,-0.36 -20.13,-0.94 -9.91,-0.88 -18.8,-5.01 -25.23,-11.45 -6.27,-6.27 -10.21,-14.71 -10.5,-24.44 -0.05,-1.76 -0.08,-3.54 -0.08,-5.34 0,-1.81 0.03,-3.59 0.08,-5.34 0.27,-9.61 4.12,-17.74 10.26,-23.88 6.44,-6.44 15.41,-10.65 25.34,-11.99z"/>
   <path class="fil0" d="M31.47 158.83c0.6,2.4 -1.19,3.27 -3.16,3.69 -2.34,0.5 -4.71,0.95 -7.11,1.53l-5.29 38.4 -1.61 14.69c-0.02,0.63 -0.07,1.28 -0.16,1.94 1.99,-0.48 6.76,-1.86 8.51,-1 2.14,1.06 1.64,4.66 -0.76,5.08l-18.32 4.68c-3.24,1.1 -5.42,-3.97 -1.37,-5.38 1.93,-0.66 3.89,-1.26 5.88,-1.79 0.23,-7.65 5.43,-47.53 7.66,-55.31 -3.94,0.88 -7.28,2.69 -8.08,-0.85 -0.32,-1.39 0.24,-2.96 1.99,-3.49 3.27,-0.98 18.05,-4.94 20.54,-3.83 0.67,0.3 1.1,0.85 1.28,1.64z"/>
   <path class="fil0" d="M38.48 197.18c2.03,5.23 2.75,9.71 -1.45,13.72 -3.29,3.05 -9.42,4.16 -13.84,1.77 -1.76,-0.95 -2.9,-2.39 -1.73,-4.08 0.82,-1.06 2.75,-0.08 3.92,0.27 3.2,0.96 5.16,0.19 7.23,-2.01 3.67,-4.06 0.38,-9.47 -1.33,-14.06l-0.08 -0.21c-1.33,-3.66 -2.13,-7.94 0.45,-11 1.74,-2.06 5.57,-2.32 8.29,-1.96 2.09,0.28 2.47,2.36 0.56,2.66 -1.73,0.27 -2.91,0.27 -4.27,1.48 -2.79,2.47 -0.43,7.02 0.84,9.98 0.49,1.15 0.97,2.29 1.43,3.45z"/>
   <path class="fil0" d="M78.13 192.64c0.02,-1.07 0.23,-7.71 -1.06,-7.72 -1.66,-0.02 -5.11,6.07 -5.84,7.66 -2.2,4.78 -3.38,10.26 -4.58,15.37 -0.07,0.28 -0.13,0.57 -0.2,0.86 -0.89,3.78 -5.63,4.11 -5.64,0.32 -0,-1.05 0.14,-2.43 0.2,-3.52 0.29,-5.77 0.32,-11.64 -0.12,-17.4 -0.27,-3.44 -1.15,-1.84 -2.56,0.07 -4.83,6.64 -7.57,13.28 -9.13,21.31 -0.33,1.71 -1.06,2.9 -2.93,3.17 -1.81,0.26 -2.66,-1.04 -2.61,-2.71 0.06,-2.13 0.26,-4.42 0.38,-6.57 0.02,-0.44 0.05,-0.88 0.07,-1.31 0.29,-5.82 0.6,-11.83 1.9,-17.52 0.28,-1.2 0.72,-2.17 2.12,-2.23 1.66,-0.08 1.29,2.01 1.3,3.14 0.01,0.81 0.08,6.42 0.16,6.74 2.15,-3.73 9.02,-16.18 14.6,-11.95 2.58,1.96 2.18,7.07 2.45,10.01 1.98,-4.27 9.1,-15.42 14.78,-10.66 2.1,1.76 2.21,5.28 2.41,7.84 0.51,6.77 0.32,13.84 -0.03,20.61 -0.14,2.39 -0.56,3.96 -3.22,4.43 -2.37,0.42 -3.51,-1.04 -3.51,-3.29 0,-2.19 0.37,-4.82 0.55,-7.06 0.25,-3.2 0.47,-6.38 0.52,-9.59z"/>
   <path class="fil0" d="M111.42 181.41c0.3,-0.78 0.72,-1.31 1.33,-1.54 2.08,-0.79 4.42,0.82 4.09,2.96 -0.83,5.38 -1.76,9.76 -2.73,15.15 -0.89,4.99 -1.15,7.26 -1.02,12.33 0.05,1.9 -0.21,4.24 -2.78,4.08 -1.01,-0.06 -1.71,-0.54 -2.18,-1.21 -1.4,-1.98 -0.98,-5.92 -0.59,-8.16 -0.21,0.24 -0.23,0.36 -1.03,1.28 -1.57,1.78 -3.39,3.33 -5.32,4.74 -1.46,1.06 -3.08,1.59 -4.85,1.59 -1.91,-0.07 -3.52,-0.71 -4.85,-1.94 -1.33,-1.23 -2.3,-2.67 -2.91,-4.33 -0.54,-1.46 -0.85,-2.99 -0.92,-4.58 -0.07,-1.59 0.03,-3.15 0.31,-4.68 0.41,-2.92 1.41,-5.76 3.01,-8.51 1.6,-2.75 3.69,-4.9 6.28,-6.42 1.36,-0.8 2.86,-1.26 4.49,-1.39 1.63,-0.13 3.13,0.27 4.5,1.19 1.23,0.73 2.21,1.79 2.96,3.19 0.14,0.2 0.24,0.38 0.31,0.55 0.07,0.17 0.17,0.35 0.31,0.55 0.67,-2.04 0.83,-2.81 1.6,-4.81zm-11.92 23.43c2.32,-1.93 4.17,-4.2 5.57,-6.82 1.4,-2.62 2.57,-5.36 3.52,-8.22 -0.54,-0.93 -1.23,-1.79 -2.04,-2.59 -0.82,-0.8 -1.81,-1.29 -2.96,-1.49 -1.16,-0.2 -2.2,0.02 -3.12,0.65 -0.92,0.63 -1.75,1.34 -2.5,2.14 -1.5,1.59 -2.62,3.44 -3.37,5.53 -0.75,2.09 -1.09,4.2 -1.02,6.32 0,0.93 0.08,1.98 0.26,3.14 0.17,1.16 0.66,2.08 1.48,2.74 0.68,0.47 1.26,0.56 1.74,0.3 0.48,-0.2 0.92,-0.45 1.33,-0.75 0.41,-0.3 0.78,-0.61 1.12,-0.95z"/>
   <path class="fil0" d="M161.88 163.84c0.48,0.27 0.72,0.66 0.72,1.2 0,0.53 -0.24,0.93 -0.72,1.19 -1.91,1.06 -3.98,1.66 -6.23,1.79 -2.25,0.13 -4.46,0.27 -6.64,0.4 -2.38,0.27 -4.73,0.51 -7.05,0.75 -2.32,0.23 -4.66,0.51 -7.05,0.85 -0.14,0.33 -0.24,0.7 -0.31,1.1 -0.07,0.4 -0.17,0.76 -0.31,1.1 -1.16,4.25 -2.3,8.46 -3.42,12.65 -1.12,4.18 -2.06,8.46 -2.81,12.85 -0.41,2.19 -0.75,4.4 -1.02,6.62 -0.27,2.22 -0.55,4.46 -0.82,6.72 -0.34,2.39 -0.6,4.83 -0.77,7.32 -0.17,2.49 -0.73,4.83 -1.69,7.02 -0.27,0.66 -0.72,1 -1.33,1 -0.61,0 -1.06,-0.33 -1.33,-1 -0.54,-1.26 -0.92,-2.59 -1.12,-3.98 -0.2,-1.39 -0.31,-2.79 -0.31,-4.18 0,-1.39 0.07,-2.79 0.2,-4.18 0.14,-1.39 0.27,-2.76 0.41,-4.08 0.41,-4.71 1.09,-9.36 2.04,-13.94 0.95,-4.58 2.04,-9.16 3.27,-13.74 0.54,-1.73 1.07,-3.45 1.58,-5.18 0.51,-1.73 1.04,-3.45 1.58,-5.18 -3.75,0.66 -7.44,1.34 -11.08,2.04 -3.64,0.7 -7.34,1.31 -11.08,1.84 -0.55,0.07 -1.02,-0.12 -1.43,-0.55 -0.41,-0.43 -0.65,-0.91 -0.72,-1.44 -0.14,-0.53 -0.05,-1.01 0.26,-1.44 0.31,-0.43 0.73,-0.75 1.28,-0.95 2.04,-0.66 4.12,-1.26 6.23,-1.79 2.11,-0.53 4.22,-1.03 6.33,-1.49 2.04,-0.46 4.1,-0.9 6.18,-1.29 2.08,-0.4 4.14,-0.76 6.18,-1.1 0.95,-2.66 1.97,-5.11 3.06,-7.37 0.2,-0.53 0.6,-0.86 1.17,-1 0.58,-0.13 1.11,-0.1 1.58,0.1 0.55,0.2 0.94,0.55 1.18,1.05 0.24,0.5 0.29,1.01 0.15,1.54 -0.2,0.8 -0.43,1.59 -0.66,2.39 -0.24,0.8 -0.46,1.56 -0.66,2.29 0.55,-0.07 1.06,-0.12 1.53,-0.15 0.48,-0.03 0.99,-0.12 1.53,-0.25 1.77,-0.2 3.56,-0.38 5.36,-0.55 1.8,-0.17 3.59,-0.28 5.36,-0.35 1.91,-0.13 3.83,-0.17 5.77,-0.1 1.94,0.07 3.8,0.56 5.57,1.49z"/>
   <path class="fil0" d="M144.98 211.97c-10.47,-1.83 -14.13,-13.1 -11.44,-22.31 0.72,-2.47 2.48,-5.76 4.36,-7.56 2.69,-2.56 6.5,-3.36 10.1,-3.52 2.96,-0.13 4.46,0.75 6.77,2.5 4.03,3.17 5.45,8.06 5.6,13.02 0.27,9.16 -4.43,19.37 -15.14,17.9l-0.25 -0.03zm9.41 -13.33c0.83,-5.22 0.52,-10.86 -4.46,-13.92 -1.79,-1.1 -4.3,-0.92 -6.34,-0.07 -3.07,1.28 -4.92,4.83 -5.45,7.89l-0.03 0.2c-1,6.51 1.53,14.09 9.19,14.17l0.25 0 0.26 -0c4.41,-0.12 5.86,-4.68 6.59,-8.26z"/>
   <path class="fil0" d="M170.42 178.37c1.85,0.68 0.7,4.2 0.41,5.54 -1.23,5.67 -1.8,10.12 -1.21,15.94 0.39,3.73 1.69,7.2 4.19,1.98 0.63,-1.31 1.09,-2.67 1.56,-4.04 1.83,-5.37 2.76,-10.69 4.19,-16.12 0.5,-1.92 2.28,-7.42 4.11,-2.77 1.6,4.08 0.52,10.84 -0.64,15 -1.02,3.65 -2.38,7.31 -3.93,10.77 -1.93,4.32 -6.16,7.05 -10.78,4.8 -4.11,-2.09 -4.41,-7.19 -4.62,-11.25 -0.3,-5.94 0.39,-11.43 3.09,-16.8 0.54,-1.07 1.86,-3.2 3.23,-3.12l0.41 0.08z"/>
   <path class="fil0" d="M207.43 177.16c3.75,-0.28 5.69,5.64 -0.31,6.37 -2.82,0.34 -7.75,2.3 -9.4,5.28 -0.97,1.76 -3.77,14.5 -4.6,17.43 -1.14,4.04 -6.52,3.11 -6.33,-0.9l0.97 -16.63c0.09,-2.7 0.22,-7.64 1.28,-10.06 0.4,-0.92 3.24,-3 4.09,2.54 0.14,0.9 0.24,1.81 0.31,2.74 3.03,-3.73 9.49,-6.37 14,-6.77z"/>
   <path class="fil0" d="M23.45 246.54l1.83 0 1.06 -3.05 4.75 0 1.06 3.05 1.83 0 -4.18 -11.59 -2.17 0 -4.18 11.59zm3.45 -4.64l1.83 -5.32 1.81 5.32 -3.64 0z"/>
   <path id="_1" class="fil0" d="M46.08 246.54l0 -5.93 -4.77 0 0 1.54 3.07 0c-0.15,1.73 -1.19,3.05 -3.05,3.05 -2.47,0 -3.54,-2.04 -3.54,-4.44 0,-2.42 1.06,-4.47 3.54,-4.47 1.55,0 2.55,0.9 2.91,2.24l1.8 -0.11c-0.52,-2.19 -2.19,-3.72 -4.7,-3.72 -3.38,0 -5.34,2.69 -5.34,6.07 0,3.36 1.98,6.04 5.31,6.04 1.55,0 2.96,-0.85 3.48,-2.09l0.13 1.83 1.18 0z"/>
   <polygon id="_2" class="fil0" points="49.61,234.94 49.61,246.54 57.26,246.54 57.26,244.94 51.34,244.94 51.34,241.51 56.93,241.51 56.93,239.94 51.34,239.94 51.34,236.54 57.12,236.54 57.12,234.94 "/>
   <polygon id="_3" class="fil0" points="60.7,234.94 60.7,246.54 62.43,246.54 62.43,237.39 67.67,246.54 69.97,246.54 69.97,234.94 68.24,234.94 68.24,244.3 62.9,234.94 "/>
   <path id="_4" class="fil0" d="M83.57 242.8l-1.83 -0.1c-0.29,1.47 -1.32,2.5 -2.96,2.5 -2.47,0 -3.54,-2.04 -3.54,-4.44 0,-2.42 1.06,-4.47 3.54,-4.47 1.57,0 2.55,0.91 2.91,2.27l1.8 -0.11c-0.52,-2.22 -2.17,-3.76 -4.7,-3.76 -3.38,0 -5.34,2.69 -5.34,6.07 0,3.36 1.98,6.04 5.34,6.04 2.71,0 4.34,-1.65 4.78,-4z"/>
   <polygon id="_5" class="fil0" points="86.96,234.94 86.96,246.54 88.69,246.54 88.69,234.94 "/>
   <path id="_6" class="fil0" d="M91.75 246.54l1.83 0 1.06 -3.05 4.75 0 1.06 3.05 1.83 0 -4.18 -11.59 -2.17 0 -4.18 11.59zm3.45 -4.64l1.83 -5.32 1.81 5.32 -3.64 0z"/>
   <path id="_7" class="fil0" d="M113.04 234.94l-3.71 0 0 11.59 3.8 0c3.58,0 5.57,-2.07 5.57,-5.78 0,-3.72 -2.04,-5.81 -5.67,-5.81zm-1.98 9.99l0 -8.39 1.98 0c2.6,0 3.87,1.37 3.87,4.21 0,2.81 -1.27,4.18 -3.87,4.18l-1.98 0z"/>
   <polygon id="_8" class="fil0" points="121.98,234.94 121.98,246.54 129.62,246.54 129.62,244.94 123.71,244.94 123.71,241.51 129.3,241.51 129.3,239.94 123.71,239.94 123.71,236.54 129.49,236.54 129.49,234.94 "/>
   <polygon id="_9" class="fil0" points="136.13,234.94 140.31,246.54 142.45,246.54 146.63,234.94 144.77,234.94 141.39,244.61 137.99,234.94 "/>
   <polygon id="_10" class="fil0" points="149.7,234.94 149.7,246.54 151.43,246.54 151.43,234.94 "/>
   <path id="_11" class="fil0" d="M154.49 246.54l1.83 0 1.06 -3.05 4.75 0 1.06 3.05 1.83 0 -4.18 -11.59 -2.17 0 -4.18 11.59zm3.45 -4.64l1.83 -5.32 1.81 5.32 -3.64 0z"/>
   <path id="_12" class="fil0" d="M168.89 242.55l-1.76 0.13c0.02,2.42 1.58,4.11 3.82,4.11 2.37,0 3.89,-1.7 3.89,-4.34l0 -7.51 -1.73 0 0 7.51c0,1.76 -0.77,2.74 -2.14,2.74 -1.32,0 -2.06,-0.93 -2.07,-2.65z"/>
   <polygon id="_13" class="fil0" points="178.71,234.94 178.71,246.54 186.35,246.54 186.35,244.94 180.44,244.94 180.44,241.51 186.03,241.51 186.03,239.94 180.44,239.94 180.44,236.54 186.22,236.54 186.22,234.94 "/>
   <path id="_14" class="fil0" d="M191.23 242.7l-1.78 0.1c0.18,2.38 2.07,3.93 4.7,3.93 2.2,0 4.18,-1.14 4.18,-3.31 0,-1.8 -1.7,-2.87 -3.92,-3.45 -1.36,-0.38 -2.92,-0.73 -2.94,-2.02 -0.02,-1.03 0.9,-1.68 2.14,-1.68 1.49,0 2.51,0.9 2.71,2.27l1.78 -0.1c-0.26,-2.19 -1.94,-3.76 -4.46,-3.76 -2.34,0 -3.97,1.26 -3.97,3.25 0,1.88 1.7,2.84 3.76,3.35 2.17,0.54 3.1,1.18 3.1,2.27 0,1.06 -0.91,1.58 -2.29,1.58 -1.71,0 -2.74,-0.98 -3.02,-2.43z"/>
   <path class="fil0" d="M219.45 188.06c3,6.36 8.26,15.97 -2.93,22.75 -1.71,1.04 -8.26,4.22 -9.72,0.91 -1.58,-3.59 5.94,-4.82 8.15,-6.59 2.67,-2.15 2.74,-3.38 2.74,-6.4l-0.05 -0.05c0,-6.1 -9.43,-13.37 -2.38,-21.47 4.65,-5.34 12.05,-3.46 10.46,-0.11 -1.03,2.17 -2.7,0.47 -4.85,1.67 -3.84,2.14 -2.93,6.09 -1.42,9.29z"/>
  </g>
 </g>
</svg>
